<svg width="69" height="67" viewBox="0 0 69 67" fill="none" xmlns="http://www.w3.org/2000/svg">
<g clip-path="url(#clip0_15_171)">
<path d="M57.4053 0.580566H11.9744C5.73839 0.580566 0.683105 5.63586 0.683105 11.8719V55.6024C0.683105 61.8384 5.73839 66.8937 11.9744 66.8937H57.4053C63.6413 66.8937 68.6966 61.8384 68.6966 55.6024V11.8719C68.6966 5.63586 63.6413 0.580566 57.4053 0.580566Z" fill="#00005B"/>
<path d="M28.0065 40.2555H17.4668L15.3222 46.9296C15.2947 47.044 15.2304 47.1461 15.1391 47.2204C15.0479 47.2947 14.9347 47.3369 14.8172 47.3406L9.43665 47.3403C9.132 47.3403 9.02556 47.1729 9.1173 46.8382L18.2425 20.6665L18.3337 20.3915L18.364 20.2975L18.4251 20.1009C18.4553 19.9994 18.4856 19.8918 18.5162 19.7752C18.6357 19.1665 18.6968 18.5477 18.6987 17.9274C18.6925 17.884 18.6966 17.8398 18.7104 17.7982C18.7243 17.7567 18.7476 17.7189 18.7786 17.6879C18.8096 17.657 18.8473 17.6336 18.8889 17.6198C18.9305 17.6059 18.9747 17.6019 19.018 17.608H26.2726C26.4852 17.608 26.6069 17.6841 26.6377 17.8363L36.9946 46.8841C37.0858 47.1884 36.9946 47.3405 36.721 47.3403H30.7894C30.6876 47.3514 30.5852 47.3252 30.5013 47.2664C30.4174 47.2077 30.3577 47.1204 30.3333 47.021L28.0065 40.2555ZM19.1094 34.6281H26.3183L26.2155 34.2889L26.0505 33.7517L25.809 32.9823L25.3454 31.5298L24.9039 30.1339L24.0824 27.5332C23.8554 26.8153 23.6376 26.0946 23.4288 25.3711L23.1956 24.5486L22.9437 23.6472L22.7136 22.8111H22.6679C22.4396 23.9062 22.1616 24.9904 21.8348 26.0603L21.5266 27.0494L20.7853 29.4405L20.4097 30.6587C20.3418 30.8786 20.2741 31.0961 20.2064 31.3112L20.0045 31.9483L19.8037 32.5705L19.6039 33.1773L19.4051 33.7689C19.3061 34.0612 19.2076 34.3476 19.1094 34.6281ZM53.7852 37.6579H44.797C44.9069 38.5472 45.2023 39.4035 45.6639 40.1715C46.1741 40.9321 46.8957 41.5268 47.7397 41.8825C48.8835 42.3777 50.1208 42.6202 51.367 42.5934C52.3556 42.5743 53.3406 42.4662 54.3099 42.2704C55.1767 42.1535 56.0263 41.932 56.8399 41.611C56.9921 41.4896 57.0682 41.5656 57.0684 41.8389V46.1734C57.0759 46.2917 57.0522 46.4096 56.9996 46.5156C56.9475 46.5985 56.8774 46.6687 56.7945 46.721C55.8919 47.1208 54.9419 47.4038 53.9677 47.5632C52.6442 47.8117 51.299 47.9262 49.9525 47.9051C47.86 47.9051 46.0962 47.5912 44.661 46.9633L44.5228 46.9014C43.1431 46.2938 41.9245 45.3719 40.9644 44.2095C40.0674 43.1143 39.4002 41.8497 39.0023 40.4911C38.6087 39.1501 38.409 37.7596 38.4096 36.362C38.4053 34.8358 38.644 33.3188 39.1168 31.8678C39.5721 30.4524 40.292 29.1364 41.2383 27.9897C42.1719 26.8565 43.3391 25.9382 44.6602 25.2975C45.9984 24.644 47.5803 24.4094 49.4052 24.4094C50.9187 24.3715 52.4221 24.6675 53.8083 25.2763C54.9738 25.7733 55.9998 26.5482 56.7966 27.5332C57.5444 28.4976 58.1158 29.5866 58.4847 30.7498C58.844 31.8707 59.0287 33.0403 59.0323 34.2174C59.0323 34.8869 59.0095 35.4953 58.964 36.0426L58.9234 36.5113L58.8809 36.956L58.8556 37.1813L58.8498 37.2289C58.8379 37.3294 58.7896 37.4221 58.7139 37.4894C58.6383 37.5567 58.5406 37.5939 58.4393 37.5939L58.3142 37.5966L58.1582 37.6045L58.0368 37.6133L57.7531 37.6375L57.5039 37.6622C57.436 37.6693 57.3656 37.6759 57.2926 37.6821L57.0666 37.6999L56.8251 37.7159L56.5687 37.7291L56.2971 37.7406L56.1555 37.7453L55.8614 37.7533C55.5705 37.7605 55.2724 37.7424 54.9666 37.7201L54.5028 37.6861C54.264 37.6686 54.0245 37.6592 53.7852 37.6579ZM44.7973 33.5014H51.0104L51.5397 33.498L51.8994 33.4929L52.1324 33.4876L52.3938 33.4786C52.6278 33.4552 52.8537 33.3803 53.0554 33.2594V32.9857C53.0464 32.6289 52.985 32.2753 52.8731 31.9363C52.627 31.1579 52.1321 30.4818 51.4644 30.0119C50.7968 29.542 49.9933 29.3043 49.1775 29.3353C48.4096 29.2889 47.6448 29.467 46.9764 29.8478C46.308 30.2286 45.7648 30.7957 45.4131 31.4799C45.1004 32.1163 44.8924 32.7987 44.7973 33.5014Z" fill="#9999FF"/>
</g>
<defs>
<clipPath id="clip0_15_171">
<rect width="68.0246" height="66.4194" fill="white" transform="translate(0.677734 0.580566)"/>
</clipPath>
</defs>
</svg>
