<svg width="68" height="67" viewBox="0 0 68 67" fill="none" xmlns="http://www.w3.org/2000/svg">
<g clip-path="url(#clip0_15_165)">
<path d="M12.6179 1.4104H55.5311C62.0174 1.4104 67.3102 6.65131 67.3102 13.1895V54.4422C67.3102 60.9284 62.0693 66.2212 55.5311 66.2212H12.6179C6.07978 66.1693 0.838867 60.9284 0.838867 54.3903V13.1895C0.838867 6.65131 6.07978 1.4104 12.6179 1.4104Z" fill="#330000"/>
<path d="M32.9595 40.1733H22.6334L20.5578 46.6596C20.5059 46.919 20.2983 47.0747 20.0389 47.0228H14.8499C14.5385 47.0228 14.4866 46.8671 14.5385 46.5039L23.4636 20.8701C23.5674 20.6107 23.6193 20.2994 23.7231 19.9361C23.8269 19.3653 23.8788 18.7427 23.8788 18.12C23.8269 17.9643 23.9825 17.8605 24.0863 17.8086H31.2472C31.4547 17.8086 31.5585 17.9124 31.6104 18.0162L41.729 46.5039C41.8328 46.8152 41.729 46.9709 41.4695 46.9709H35.6578C35.4503 47.0228 35.2946 46.8671 35.1908 46.6596L32.9595 40.1733ZM24.242 34.5173H31.2472C31.0915 33.9465 30.8839 33.22 30.6245 32.5454C30.365 31.819 30.1056 30.9887 29.898 30.1585C29.6386 29.2764 29.3791 28.4461 29.1197 27.6159C28.8602 26.7337 28.6008 25.9554 28.3932 25.177C28.1856 24.3987 27.9781 23.6722 27.7705 22.9976H27.7186C27.4592 24.1911 27.1478 25.3846 26.7846 26.5781C26.3695 27.9272 25.9544 29.2764 25.4874 30.6774C25.0722 32.0784 24.6571 33.3757 24.242 34.5173ZM47.9039 22.7382C46.9699 22.7901 46.0878 22.4269 45.4651 21.7523C44.8424 21.0777 44.4792 20.1437 44.531 19.2097C44.4792 18.2756 44.8424 17.3935 45.517 16.7708C46.1915 16.1481 47.0737 15.7849 47.9558 15.7849C49.0455 15.7849 49.8757 16.0963 50.4984 16.7708C51.1211 17.4454 51.4324 18.3275 51.4324 19.2097C51.4843 20.1437 51.1211 21.0777 50.4465 21.7523C49.772 22.4269 48.8379 22.7901 47.9039 22.7382ZM44.7905 46.7634V25.4365C44.7905 25.177 44.8943 25.0733 45.1537 25.0733H50.6541C50.9135 25.0733 51.0173 25.2289 51.0173 25.4365V46.7634C51.0173 47.0747 50.9135 47.2304 50.6541 47.2304H45.2056C44.9462 47.1785 44.7905 47.0228 44.7905 46.7634Z" fill="#FF9A00"/>
</g>
<defs>
<clipPath id="clip0_15_165">
<rect width="66.4194" height="66.4194" fill="white" transform="translate(0.838867 0.580566)"/>
</clipPath>
</defs>
</svg>
