<svg width="24" height="25" viewBox="0 0 24 25" fill="none" xmlns="http://www.w3.org/2000/svg">
<path d="M16.969 17.2527C17.2235 17.4884 17.5232 17.67 17.85 17.7864C18.1768 17.9028 18.5238 17.9515 18.87 17.9297C19.4186 17.9437 19.9566 17.7767 20.401 17.4547C20.763 17.2197 21.037 16.8707 21.18 16.4647H23.765C23.4889 17.6221 22.8168 18.6465 21.865 19.3607C20.9506 19.9668 19.8706 20.2743 18.774 20.2407C17.9912 20.2519 17.2143 20.1047 16.49 19.8077C15.8347 19.5336 15.2468 19.1204 14.767 18.5967C14.2907 18.0466 13.9241 17.4105 13.687 16.7227C13.4212 15.9533 13.2916 15.1435 13.304 14.3297C13.299 13.5297 13.433 12.7347 13.7 11.9807C14.0597 10.9202 14.7455 10.0005 15.6593 9.35324C16.5731 8.70595 17.6682 8.36413 18.788 8.37666C19.6148 8.36082 20.4322 8.5545 21.164 8.93966C21.825 9.30166 22.395 9.80966 22.832 10.4247C23.2784 11.0696 23.5984 11.7934 23.775 12.5577C23.969 13.3787 24.038 14.2237 23.98 15.0657H16.281C16.218 15.8557 16.465 16.6397 16.969 17.2527ZM6.947 4.40966C7.59532 4.39728 8.24273 4.46377 8.875 4.60766C9.40762 4.72395 9.91327 4.94046 10.365 5.24566C10.783 5.54866 11.113 5.95666 11.323 6.42766C11.564 7.00666 11.68 7.63066 11.664 8.25766C11.6923 8.94691 11.5162 9.62914 11.158 10.2187C10.7831 10.7762 10.2635 11.2211 9.655 11.5057C10.4798 11.7289 11.1983 12.2383 11.682 12.9427C12.146 13.6897 12.379 14.5577 12.352 15.4367C12.3676 16.1374 12.223 16.8324 11.929 17.4687C11.6573 18.0242 11.2589 18.5082 10.766 18.8817C10.2594 19.2519 9.68887 19.5255 9.083 19.6887C8.45552 19.8643 7.80659 19.9515 7.155 19.9477H0V4.40966H6.947ZM6.712 17.3097C7.02133 17.3137 7.32667 17.2807 7.628 17.2107C7.90218 17.1499 8.1622 17.0372 8.394 16.8787C8.622 16.7207 8.805 16.5077 8.928 16.2597C9.07 15.9427 9.136 15.5967 9.119 15.2507C9.14994 14.9348 9.10817 14.616 8.99689 14.3187C8.88561 14.0214 8.70777 13.7536 8.477 13.5357C7.98734 13.1757 7.38779 12.9972 6.781 13.0307H3.241V17.3097H6.712ZM20.347 11.3427C20.1316 11.1272 19.8725 10.9604 19.5872 10.8537C19.3018 10.7469 18.9969 10.7025 18.693 10.7237C18.2895 10.7082 17.8888 10.7974 17.53 10.9827C17.2461 11.1395 16.9955 11.3501 16.792 11.6027C16.612 11.8398 16.4777 12.1084 16.396 12.3947C16.322 12.6347 16.2763 12.8793 16.259 13.1287H21.028C20.9861 12.479 20.7495 11.8569 20.349 11.3437L20.347 11.3427ZM6.534 10.6947C7.0437 10.7158 7.54547 10.5631 7.957 10.2617C8.356 9.90666 8.564 9.38166 8.517 8.84866C8.5306 8.54164 8.46952 8.23589 8.339 7.95766C8.22808 7.73651 8.05636 7.55161 7.844 7.42466C7.62858 7.28498 7.38645 7.19167 7.133 7.15066C6.85799 7.09715 6.57812 7.07268 6.298 7.07766H3.241V10.7087H6.534V10.6947ZM21.62 5.44766H15.644V6.97466H21.62V5.44766Z" fill="#94968C"/>
</svg>
