<svg width="67" height="67" viewBox="0 0 67 67" fill="none" xmlns="http://www.w3.org/2000/svg">
<path d="M10.1797 59.2185L4.96265 0.701416H62.2909L57.0687 59.2097L33.592 65.7183L10.1797 59.2185Z" fill="#1572B6"/>
<path d="M33.6279 60.7442L52.5985 55.4846L57.0615 5.48633H33.6279V60.7442Z" fill="#33A9DC"/>
<path d="M33.6279 26.6865H43.1249L43.7808 19.3373H33.6279V12.1604H51.6245L51.4522 14.086L49.6879 33.8635H33.6279V26.6865Z" fill="white"/>
<path d="M33.6697 45.3257L33.6381 45.335L25.6454 43.1769L25.1343 37.4529H17.9309L18.936 48.7219L33.637 52.802L33.6697 52.7927V45.3257Z" fill="#EBEBEB"/>
<path d="M42.5143 33.5603L41.6498 43.1714L33.6453 45.3321V52.7991L48.3582 48.7216L48.4661 47.5089L49.7146 33.5603H42.5143Z" fill="white"/>
<path d="M33.6522 12.1604V19.3373H16.3167L16.173 17.7246L15.8461 14.086L15.6743 12.1604H33.6522ZM33.6278 26.6876V33.8645H25.7358L25.5921 32.2518L25.2647 28.6132L25.0934 26.6876H33.6278Z" fill="#EBEBEB"/>
</svg>
