<svg width="24" height="25" viewBox="0 0 24 25" fill="none" xmlns="http://www.w3.org/2000/svg">
<path d="M20 4.32568H4C2.9 4.32568 2.01 5.22568 2.01 6.32568L2 18.3257C2 19.4257 2.9 20.3257 4 20.3257H20C21.1 20.3257 22 19.4257 22 18.3257V6.32568C22 5.22568 21.1 4.32568 20 4.32568ZM19.6 8.57568L12.53 12.9957C12.21 13.1957 11.79 13.1957 11.47 12.9957L4.4 8.57568C4.29973 8.51939 4.21192 8.44335 4.14189 8.35214C4.07186 8.26093 4.02106 8.15646 3.99258 8.04505C3.96409 7.93365 3.9585 7.81762 3.97616 7.70399C3.99381 7.59036 4.03434 7.4815 4.09528 7.38398C4.15623 7.28647 4.23632 7.20234 4.33073 7.13668C4.42513 7.07102 4.53187 7.02519 4.6445 7.00198C4.75712 6.97877 4.87328 6.97865 4.98595 7.00163C5.09863 7.02461 5.20546 7.07022 5.3 7.13568L12 11.3257L18.7 7.13568C18.7945 7.07022 18.9014 7.02461 19.014 7.00163C19.1267 6.97865 19.2429 6.97877 19.3555 7.00198C19.4681 7.02519 19.5749 7.07102 19.6693 7.13668C19.7637 7.20234 19.8438 7.28647 19.9047 7.38398C19.9657 7.4815 20.0062 7.59036 20.0238 7.70399C20.0415 7.81762 20.0359 7.93365 20.0074 8.04505C19.9789 8.15646 19.9281 8.26093 19.8581 8.35214C19.7881 8.44335 19.7003 8.51939 19.6 8.57568Z" fill="#94968C"/>
</svg>
