<svg width="67" height="67" viewBox="0 0 67 67" fill="none" xmlns="http://www.w3.org/2000/svg">
<path d="M22.1397 0.580566H33.2096V22.7204H22.1397C19.2038 22.7204 16.3881 21.5541 14.3121 19.4781C12.2361 17.4021 11.0698 14.5864 11.0698 11.6505C11.0698 8.71455 12.2361 5.89888 14.3121 3.82287C16.3881 1.74686 19.2038 0.580566 22.1397 0.580566Z" fill="#F4511E"/>
<path d="M44.2796 22.7204H33.2097V0.580566H44.2796C47.2155 0.580566 50.0312 1.74686 52.1072 3.82287C54.1832 5.89888 55.3495 8.71455 55.3495 11.6505C55.3495 14.5864 54.1832 17.4021 52.1072 19.4781C50.0312 21.5541 47.2155 22.7204 44.2796 22.7204Z" fill="#FF8A65"/>
<path d="M22.1397 22.7205H33.2096V44.8603H22.1397C19.2038 44.8603 16.3881 43.694 14.3121 41.618C12.2361 39.542 11.0698 36.7263 11.0698 33.7904C11.0698 30.8544 12.2361 28.0388 14.3121 25.9628C16.3881 23.8867 19.2038 22.7205 22.1397 22.7205Z" fill="#7C4DFF"/>
<path d="M33.2098 33.7904C33.2098 39.9042 38.166 44.8604 44.2797 44.8604C50.3934 44.8604 55.3496 39.9042 55.3496 33.7904C55.3496 27.6767 50.3934 22.7205 44.2797 22.7205C38.166 22.7205 33.2098 27.6767 33.2098 33.7904Z" fill="#29B6F6"/>
<path d="M22.1397 44.8604H33.2096V55.9303C33.2096 58.8662 32.0433 61.6819 29.9673 63.7579C27.8913 65.8339 25.0757 67.0002 22.1397 67.0002C19.2038 67.0002 16.3881 65.8339 14.3121 63.7579C12.2361 61.6819 11.0698 58.8662 11.0698 55.9303C11.0698 52.9943 12.2361 50.1787 14.3121 48.1027C16.3881 46.0266 19.2038 44.8604 22.1397 44.8604Z" fill="#00E676"/>
</svg>
