<svg width="68" height="67" viewBox="0 0 68 67" fill="none" xmlns="http://www.w3.org/2000/svg">
<path d="M65.4017 30.2925L36.8019 1.69374C35.156 0.0467475 32.4847 0.0467475 30.8361 1.69374L24.8978 7.63309L32.4312 15.1665C34.1825 14.5755 36.1896 14.9719 37.5849 16.3672C38.9875 17.7714 39.3809 19.7956 38.7753 21.5526L46.0358 28.8136C47.7923 28.2081 49.8196 28.5993 51.2217 30.0045C53.1831 31.9644 53.1831 35.1416 51.2217 37.1026C50.7556 37.5689 50.2021 37.9389 49.593 38.1912C48.9839 38.4436 48.331 38.5736 47.6716 38.5736C47.0123 38.5736 46.3594 38.4436 45.7502 38.1912C45.1411 37.9389 44.5877 37.5689 44.1216 37.1026C43.4214 36.4017 42.9442 35.5095 42.7498 34.5381C42.5554 33.5667 42.6527 32.5595 43.0293 31.6432L36.2586 24.8726L36.2576 42.6922C36.7489 42.934 37.1974 43.2544 37.5855 43.6407C39.5459 45.6006 39.5459 48.7768 37.5855 50.7409C35.6245 52.7008 32.4463 52.7008 30.4874 50.7409C28.527 48.7773 28.527 45.6011 30.4874 43.6407C30.9575 43.1708 31.5161 42.7987 32.1308 42.5458V24.5612C31.5154 24.3094 30.9566 23.937 30.4874 23.4658C29.0023 21.9818 28.6448 19.8024 29.4065 17.9779L21.9795 10.5509L2.36915 30.1602C1.57799 30.9516 1.13354 32.0248 1.13354 33.1439C1.13354 34.2629 1.57799 35.3361 2.36915 36.1275L30.9695 64.7263C32.6165 66.3733 35.2867 66.3733 36.9363 64.7263L65.4022 36.2604C66.1932 35.4688 66.6375 34.3954 66.6374 33.2763C66.6373 32.1572 66.1928 31.084 65.4017 30.2925Z" fill="#F34F29"/>
</svg>
