<svg width="67" height="67" viewBox="0 0 67 67" fill="none" xmlns="http://www.w3.org/2000/svg">
<path d="M9.25496 59.7799L3.9248 0H62.4925L57.1552 59.7704L33.1731 66.4194L9.25496 59.7799Z" fill="#E44F26"/>
<path d="M33.209 61.3381L52.5892 55.9652L57.1484 4.88867H33.209V61.3381Z" fill="#F1662A"/>
<path d="M33.2091 27.0592H23.5072L22.8382 19.5515H33.2091V12.2192H14.8252L15.0007 14.1881L16.8012 34.3915H33.2091V27.0592ZM33.2091 46.1003L33.1759 46.1098L25.0111 43.9061L24.4892 38.0588H17.1285L18.1557 49.5683L33.1759 53.7385L33.2091 53.729V46.1003Z" fill="#EBEBEB"/>
<path d="M33.1826 27.0592V34.3915H42.2109L41.3617 43.9013L33.1826 46.1074V53.7361L48.2148 49.5683L48.3239 48.3301L50.046 29.0281L50.2263 27.0592H33.1826ZM33.1826 12.2192V19.5515H50.8929L51.04 17.9052L51.3744 14.1881L51.55 12.2192H33.1826Z" fill="white"/>
</svg>
