<svg width="67" height="66" viewBox="0 0 67 66" fill="none" xmlns="http://www.w3.org/2000/svg">
<g clip-path="url(#clip0_15_168)">
<path d="M55.6511 0.358887H11.285C5.19511 0.358887 0.258301 5.29569 0.258301 11.3856V54.0912C0.258301 60.181 5.19511 65.1178 11.285 65.1178H55.6511C61.7409 65.1178 66.6777 60.181 66.6777 54.0912V11.3856C66.6777 5.29569 61.7409 0.358887 55.6511 0.358887Z" fill="#49021F"/>
<path d="M24.3792 17.3002V45.6825C24.3792 45.9797 24.2455 46.1283 23.9781 46.1283H18.5867C18.3487 46.1283 18.23 45.9797 18.2305 45.6825V17.3002C18.2305 17.0627 18.3641 16.9439 18.6313 16.9437H24.0227C24.068 16.9373 24.1142 16.9408 24.1581 16.954C24.2019 16.9673 24.2423 16.9899 24.2765 17.0203C24.3107 17.0508 24.3379 17.0883 24.3561 17.1303C24.3743 17.1723 24.3832 17.2178 24.3821 17.2636L24.3792 17.3002ZM40.6172 46.5709L40.3302 46.5738C38.2795 46.605 36.2475 46.1789 34.3821 45.3263C32.6442 44.522 31.1915 43.2091 30.2161 41.5612C29.2305 39.9242 28.7258 37.884 28.7019 35.4407L28.7011 35.2565C28.6844 33.2115 29.207 31.1983 30.2163 29.4196C31.228 27.6565 32.7035 26.2044 34.4825 25.2209L34.6272 25.1421C36.5576 24.0728 38.8893 23.5381 41.6226 23.5381L41.6802 23.5384L41.8081 23.5413L41.9528 23.547L42.1145 23.5553L42.2927 23.5664L42.4876 23.5807L42.9279 23.6168L43.0482 23.6271V14.8499C43.0482 14.6422 43.1373 14.5381 43.3155 14.5378H48.9297C48.966 14.5326 49.0031 14.5359 49.0379 14.5475C49.0727 14.5591 49.1043 14.5786 49.1302 14.6046C49.1561 14.6305 49.1757 14.6621 49.1873 14.6969C49.1989 14.7317 49.2022 14.7687 49.197 14.805V41.138C49.1987 41.6882 49.221 42.2381 49.2639 42.7865L49.3059 43.361L49.343 43.8957L49.3752 44.3905C49.3807 44.483 49.3582 44.5751 49.3105 44.6546C49.2628 44.7342 49.1922 44.7975 49.108 44.8362C47.6596 45.4402 46.151 45.8882 44.6078 46.1726C43.291 46.4159 41.9563 46.5491 40.6175 46.5709M43.0485 41.0487V28.8849C42.8077 28.8197 42.5618 28.775 42.3135 28.7513C42.0099 28.7206 41.705 28.7057 41.4 28.7067C40.3186 28.696 39.2501 28.9402 38.2811 29.4196C37.3373 29.8892 36.5313 30.5953 35.9419 31.4693C35.3327 32.3603 35.0282 33.5336 35.0284 34.9893C35.0068 35.9605 35.1654 36.9272 35.4961 37.8406C35.7655 38.5767 36.1911 39.2456 36.7439 39.8013C37.2729 40.3126 37.9136 40.6939 38.6153 40.9151C39.3564 41.155 40.1309 41.2754 40.9099 41.2719C41.3255 41.2719 41.7116 41.2569 42.0683 41.227C42.3528 41.2056 42.6348 41.1587 42.911 41.0869L43.0485 41.0487Z" fill="#FF3366"/>
</g>
<defs>
<clipPath id="clip0_15_168">
<rect width="66.4194" height="64.8627" fill="white" transform="translate(0.258301 0.358887)"/>
</clipPath>
</defs>
</svg>
