<svg width="67" height="67" viewBox="0 0 67 67" fill="none" xmlns="http://www.w3.org/2000/svg">
<path d="M25.023 51.3339C25.023 51.3339 22.4895 52.8072 26.8261 53.3057C32.08 53.905 34.765 53.8192 40.5548 52.7233C40.5548 52.7233 42.0771 53.6777 44.2027 54.5045C31.2238 60.0671 14.8286 54.1822 25.023 51.3339ZM23.437 44.075C23.437 44.075 20.5954 46.1785 24.9353 46.6273C30.5475 47.2063 34.9796 47.2537 42.6489 45.7769C42.6489 45.7769 43.7097 46.8523 45.3777 47.4405C29.6852 52.0292 12.2068 47.8023 23.437 44.075Z" fill="#5382A1"/>
<path d="M36.8073 31.7613C40.0054 35.4431 35.9671 38.7564 35.9671 38.7564C35.9671 38.7564 44.0874 34.5645 40.3581 29.3151C36.8751 24.42 34.2039 21.9874 48.664 13.6013C48.664 13.6013 25.9666 19.2702 36.8073 31.7613Z" fill="#E76F00"/>
<path d="M53.9731 56.7023C53.9731 56.7023 55.848 58.247 51.9081 59.4422C44.4166 61.7117 20.7271 62.3971 14.1462 59.5326C11.7806 58.5036 16.2169 57.0754 17.6123 56.7756C19.0676 56.46 19.8994 56.5189 19.8994 56.5189C17.2685 54.6655 2.89465 60.158 12.5982 61.7307C39.061 66.0223 60.8371 59.7984 53.9731 56.7023ZM26.2413 36.5534C26.2413 36.5534 14.1915 39.4155 21.9743 40.4546C25.2603 40.8946 31.8111 40.7952 37.913 40.2838C42.8999 39.8634 47.9072 38.9688 47.9072 38.9688C47.9072 38.9688 46.1489 39.7219 44.8767 40.5906C32.6402 43.8088 9.00139 42.3117 15.8067 39.0197C21.562 36.2378 26.2413 36.5534 26.2413 36.5534ZM47.8575 48.6359C60.2968 42.1721 54.5453 35.9606 50.531 36.7975C49.547 37.0022 49.1084 37.1796 49.1084 37.1796C49.1084 37.1796 49.4737 36.6075 50.1713 36.3599C58.1128 33.5678 64.2205 44.5945 47.6076 48.9617C47.6076 48.9619 47.8001 48.7899 47.8575 48.6359Z" fill="#5382A1"/>
<path d="M40.3582 0.0595181C40.3582 0.0595181 47.2472 6.95101 33.8243 17.5476C23.0607 26.0481 31.3699 30.8948 33.8199 36.4324C27.537 30.7637 22.926 25.7734 26.0195 21.1291C30.5596 14.3111 43.1376 11.0059 40.3582 0.0595181Z" fill="#E76F00"/>
<path d="M27.4642 66.1519C39.4042 66.9163 57.7392 65.7278 58.1734 60.0781C58.1734 60.0781 57.3388 62.2201 48.3057 63.9209C38.1147 65.8386 25.5457 65.6147 18.0908 64.3856C18.091 64.3856 19.6167 65.6487 27.4642 66.1519Z" fill="#5382A1"/>
</svg>
