<svg width="67" height="67" viewBox="0 0 67 67" fill="none" xmlns="http://www.w3.org/2000/svg">
<g clip-path="url(#clip0_15_192)">
<path d="M51.1085 0H15.8232C7.22571 0 0.256104 6.96961 0.256104 15.5671V50.8524C0.256104 59.4498 7.22571 66.4194 15.8232 66.4194H51.1085C59.7059 66.4194 66.6755 59.4498 66.6755 50.8524V15.5671C66.6755 6.96961 59.7059 0 51.1085 0Z" fill="#F0DB4F"/>
<path d="M17.7205 55.5044L22.8031 52.4283C23.7838 54.1669 24.6758 55.638 26.8155 55.638C28.8665 55.638 30.1596 54.8357 30.1596 51.7151V30.4925H36.4015V51.8033C36.4015 58.268 32.6119 61.2107 27.083 61.2107C22.0899 61.2107 19.1916 58.6248 17.7202 55.5038M39.7917 54.8355L44.8738 51.8931C46.2118 54.0779 47.9507 55.6828 51.0267 55.6828C53.6132 55.6828 55.2622 54.3897 55.2622 52.6063C55.2622 50.4663 53.568 49.7082 50.7146 48.4603L49.1545 47.7911C44.6512 45.8743 41.6639 43.4666 41.6639 38.384C41.6639 33.7024 45.2308 30.1355 50.8041 30.1355C54.7721 30.1355 57.6256 31.5179 59.6763 35.1291L54.8165 38.2501C53.7463 36.333 52.5876 35.5751 50.8041 35.5751C48.976 35.5751 47.8168 36.7344 47.8168 38.2501C47.8168 40.1225 48.976 40.8807 51.6509 42.0401L53.2113 42.7087C58.5168 44.9828 61.5041 47.3008 61.5041 52.517C61.5041 58.1352 57.0903 61.2112 51.1606 61.2112C45.3647 61.2112 41.6195 58.447 39.7917 54.8355Z" fill="#323330"/>
</g>
<defs>
<clipPath id="clip0_15_192">
<rect width="66.4194" height="66.4194" fill="white" transform="translate(0.256104)"/>
</clipPath>
</defs>
</svg>
