<svg width="24" height="25" viewBox="0 0 24 25" fill="none" xmlns="http://www.w3.org/2000/svg">
<path d="M20.445 20.7789H16.8953V15.2087C16.8953 13.8804 16.8675 12.1734 15.039 12.1734C13.188 12.1734 12.906 13.6142 12.906 15.1104V20.7782H9.35175V9.32493H12.7657V10.8872H12.8115C13.2885 9.98493 14.4487 9.03618 16.1798 9.03618C19.7805 9.03618 20.4487 11.4069 20.4487 14.4894V20.7782L20.445 20.7789ZM5.33625 7.75968C5.06496 7.75978 4.79631 7.70636 4.54569 7.60247C4.29508 7.49858 4.06742 7.34627 3.87576 7.15427C3.6841 6.96226 3.53221 6.73433 3.42878 6.48352C3.32534 6.23272 3.27241 5.96398 3.273 5.69268C3.27344 5.28435 3.39496 4.88531 3.62217 4.54603C3.84939 4.20675 4.1721 3.94245 4.54951 3.78657C4.92692 3.63068 5.34208 3.5902 5.74249 3.67024C6.14291 3.75029 6.5106 3.94726 6.79907 4.23626C7.08755 4.52526 7.28385 4.89331 7.36317 5.29387C7.44249 5.69443 7.40126 6.10951 7.24468 6.48664C7.08811 6.86376 6.82323 7.186 6.48354 7.4126C6.14384 7.63919 5.74459 7.75998 5.33625 7.75968ZM7.11675 20.7789H3.555V9.32568H7.11675V20.7789ZM22.227 0.325684H1.77C0.79275 0.325684 0 1.09893 0 2.05593V22.5962C0 23.5532 0.79275 24.3264 1.77 24.3264H22.2233C23.199 24.3264 24 23.5532 24 22.5962V2.05593C24 1.09893 23.199 0.325684 22.2233 0.325684H22.227Z" fill="#94968C"/>
</svg>
