<svg width="67" height="67" viewBox="0 0 67 67" fill="none" xmlns="http://www.w3.org/2000/svg">
<g clip-path="url(#clip0_15_162)">
<path d="M12.1814 1.4104H55.0769C61.5808 1.4104 66.8389 6.66843 66.8389 13.1723V54.4074C66.8389 60.9113 61.5808 66.1693 55.0769 66.1693H12.1814C5.67747 66.1693 0.419434 60.9113 0.419434 54.4074V13.1723C0.419434 6.66843 5.67747 1.4104 12.1814 1.4104Z" fill="#001E36"/>
<path d="M24.2204 17.877C23.3901 17.877 22.5599 17.877 21.7021 17.905C20.8439 17.9325 20.0411 17.9325 19.2939 17.9605C18.5467 17.988 17.855 17.988 17.1908 18.0155C16.5541 18.043 16.1115 18.043 15.6408 18.043C15.4473 18.043 15.3643 18.1535 15.3643 18.3476V46.8249C15.3643 47.074 15.4748 47.185 15.6964 47.185H21.0654C21.259 47.157 21.3975 46.991 21.3695 46.7974V37.9138C21.8952 37.9138 22.2828 37.9138 22.5599 37.9413C22.8364 37.9688 23.2791 37.9688 23.9433 37.9688C26.2129 37.9688 28.2885 37.7198 30.1701 37.0281C31.9691 36.3639 33.5191 35.2015 34.6259 33.6516C35.7329 32.1018 36.2864 30.1369 36.2864 27.7568C36.2864 26.5115 36.0653 25.3216 35.6502 24.1593C35.2103 22.9751 34.5213 21.8992 33.6296 21.0044C32.5772 19.9819 31.3103 19.2066 29.921 18.7347C28.371 18.1535 26.4895 17.877 24.2204 17.877ZM24.8378 23.328C25.8238 23.3467 26.7837 23.519 27.6794 23.8822C28.4821 24.1868 29.1463 24.7405 29.6169 25.4597C30.0583 26.204 30.2791 27.0584 30.2536 27.9234C30.2536 29.1408 29.9765 30.082 29.3954 30.7737C28.7862 31.4654 28.0115 31.9916 27.1262 32.2407C26.1019 32.5728 25.0226 32.7383 23.9433 32.7383H22.4763C22.1442 32.7383 21.7851 32.7108 21.3975 32.6833V23.3846C21.5911 23.3566 21.9787 23.3291 22.5324 23.3571C23.058 23.3291 23.6942 23.3291 24.4139 23.3291C24.5557 23.3256 24.6971 23.3252 24.8378 23.328ZM48.0483 24.741C46.0832 24.741 44.4503 25.0451 43.1499 25.7093C41.96 26.2629 40.9357 27.1482 40.244 28.255C39.6354 29.2793 39.3028 30.4136 39.3028 31.604C39.2791 32.583 39.4978 33.5527 39.9394 34.4268C40.457 35.3575 41.1757 36.1611 42.0431 36.779C43.2605 37.6117 44.5816 38.2815 45.9727 38.7716C47.3286 39.2972 48.2419 39.7123 48.685 40.0719C49.1276 40.4321 49.3492 40.7917 49.3492 41.1793C49.3492 41.6774 49.0446 42.1481 48.602 42.3416C48.1038 42.5907 47.3566 42.7292 46.3048 42.7292C45.198 42.7292 44.0907 42.5907 43.0388 42.3141C41.8311 42.0444 40.6732 41.5869 39.6073 40.9582C39.5243 40.9027 39.4413 40.8752 39.3583 40.9307C39.2753 40.9857 39.2478 41.0962 39.2478 41.1793V45.9947C39.2202 46.2163 39.3583 46.4098 39.5523 46.5203C40.4498 46.9396 41.3991 47.2375 42.3752 47.4061C43.6205 47.6552 44.8654 47.7657 46.1382 47.7657C48.1308 47.7657 49.7918 47.4616 51.1477 46.8804C52.3931 46.3823 53.4724 45.5246 54.2471 44.4172C54.9727 43.3286 55.3492 42.0447 55.3264 40.7367C55.3537 39.7485 55.1351 38.7691 54.6903 37.8863C54.1641 36.945 53.4169 36.1703 52.5036 35.5891C51.1676 34.7501 49.7371 34.0719 48.2419 33.5685C47.5742 33.2922 46.9185 32.9875 46.2768 32.6553C45.9172 32.4617 45.5851 32.2127 45.336 31.9081C45.17 31.6865 45.0595 31.4379 45.0595 31.1889C45.0595 30.9398 45.1425 30.6632 45.2805 30.4416C45.4746 30.1651 45.7786 29.971 46.1382 29.888C46.6644 29.7499 47.2456 29.6664 47.7987 29.6939C48.8505 29.6939 49.8743 29.8324 50.8986 30.054C51.8399 30.2476 52.7252 30.5522 53.5554 30.9953C53.666 31.0503 53.8045 31.0503 54.0536 30.9953C54.0968 30.9633 54.1319 30.9215 54.156 30.8733C54.18 30.8252 54.1924 30.772 54.1921 30.7182V26.2074C54.1921 26.0964 54.1641 25.9858 54.1366 25.8753C54.0811 25.7648 53.9705 25.6537 53.86 25.6262C53.0967 25.3143 52.2969 25.1003 51.4798 24.9895C50.3435 24.8241 49.1967 24.7414 48.0483 24.741Z" fill="#31A8FF"/>
</g>
<defs>
<clipPath id="clip0_15_162">
<rect width="66.4194" height="66.4194" fill="white" transform="translate(0.419434 0.580566)"/>
</clipPath>
</defs>
</svg>
