<svg width="67" height="67" viewBox="0 0 67 67" fill="none" xmlns="http://www.w3.org/2000/svg">
<path d="M26.1978 0.00170898C23.6788 0.00170898 21.2629 1.00239 19.4817 2.7836C17.7005 4.56482 16.6998 6.98067 16.6998 9.49969V15.0789H30.9468C32.242 15.0789 33.3047 16.9719 33.3047 18.2671H9.59295C7.07393 18.2671 4.65808 19.2677 2.87686 21.0489C1.09565 22.8302 0.0949707 25.246 0.0949707 27.765V40.3216C0.0949707 42.8406 1.09565 45.2565 2.87686 47.0377C4.65808 48.8189 7.07393 49.8196 9.59295 49.8196H13.5117V40.9194C13.5073 39.6737 13.7489 38.4393 14.2226 37.2872C14.6963 36.135 15.3928 35.0877 16.2721 34.2053C17.1514 33.3229 18.1963 32.6228 19.3468 32.1451C20.4973 31.6673 21.7307 31.4214 22.9765 31.4214H40.4116C45.6587 31.4214 49.9095 27.2005 49.9095 21.9533V9.49969C49.9095 6.98067 48.9089 4.56482 47.1276 2.7836C45.3464 1.00239 42.9306 0.00170898 40.4116 0.00170898H26.1978ZM23.8067 5.34847C25.1351 5.34847 26.1978 5.74699 26.1978 7.70636C26.1978 9.66574 25.1351 10.6653 23.8067 10.6653C22.5115 10.6653 21.4488 9.66906 21.4488 7.70968C21.4488 5.75031 22.5115 5.34847 23.8067 5.34847Z" fill="#0288D1"/>
<path d="M53.0942 16.6064V25.5066C53.0982 26.7521 52.8563 27.9861 52.3824 29.1378C51.9085 30.2896 51.2119 31.3365 50.3327 32.2186C49.4534 33.1006 48.4087 33.8005 47.2584 34.278C46.1081 34.7555 44.8749 35.0013 43.6295 35.0013H26.1977C24.952 34.9969 23.7176 35.2385 22.5655 35.7122C21.4133 36.1859 20.366 36.8824 19.4836 37.7617C18.6012 38.641 17.9011 39.6859 17.4233 40.8364C16.9456 41.9869 16.6997 43.2203 16.6997 44.4661V56.9197C16.6997 59.4387 17.7004 61.8546 19.4816 63.6358C21.2628 65.417 23.6787 66.4177 26.1977 66.4177H40.4114C42.9299 66.4177 45.3452 65.4175 47.1264 63.637C48.9075 61.8565 49.9085 59.4415 49.9094 56.923V51.3438H35.6591C34.364 51.3438 33.3046 49.4509 33.3046 48.1557H57.0163C59.5353 48.1557 61.9512 47.155 63.7324 45.3738C65.5136 43.5926 66.5143 41.1767 66.5143 38.6577V26.1044C66.5143 23.5854 65.5136 21.1696 63.7324 19.3883C61.9512 17.6071 59.5353 16.6064 57.0163 16.6064H53.0942ZM21.0834 31.594L21.0701 31.6073L21.1963 31.594H21.0834ZM42.8025 55.7574C44.0977 55.7574 45.1604 56.7537 45.1604 58.713C45.1604 59.0227 45.0994 59.3293 44.9809 59.6154C44.8625 59.9014 44.6888 60.1614 44.4698 60.3803C44.2509 60.5993 43.9909 60.773 43.7049 60.8915C43.4188 61.0099 43.1122 61.0709 42.8025 61.0709C41.4742 61.0709 40.4114 60.6724 40.4114 58.713C40.4114 56.7537 41.4742 55.7574 42.8025 55.7574Z" fill="#FDD835"/>
</svg>
