<svg width="68" height="67" viewBox="0 0 68 67" fill="none" xmlns="http://www.w3.org/2000/svg">
<path d="M34.0451 39.2579C37.3852 39.2579 40.0929 36.5502 40.0929 33.2101C40.0929 29.87 37.3852 27.1624 34.0451 27.1624C30.705 27.1624 27.9973 29.87 27.9973 33.2101C27.9973 36.5502 30.705 39.2579 34.0451 39.2579Z" fill="#61DAFB"/>
<path d="M57.0173 23.2365C55.8502 22.8121 54.63 22.3877 53.3568 22.0163C53.6751 20.7431 53.9404 19.4699 54.1526 18.2497C55.2667 11.247 54.0465 6.31332 50.6512 4.4035C49.6433 3.81994 48.5292 3.55469 47.256 3.55469C43.5425 3.55469 38.8209 6.31332 34.0464 10.9287C29.2718 6.31332 24.5503 3.55469 20.8368 3.55469C19.5636 3.55469 18.4495 3.81994 17.4415 4.4035C14.0463 6.36637 12.8261 11.3001 13.9402 18.2497C14.1524 19.4699 14.4176 20.7431 14.7359 22.0163C13.4627 22.3877 12.2426 22.759 11.0754 23.2365C4.44412 25.7829 0.83667 29.2843 0.83667 33.21C0.83667 37.1358 4.49717 40.6371 11.0754 43.1835C12.2426 43.6079 13.4627 44.0323 14.7359 44.4037C14.4176 45.6769 14.1524 46.9501 13.9402 48.1703C12.8261 55.173 14.0463 60.1067 17.4415 62.0165C18.4495 62.6001 19.5636 62.8653 20.8368 62.8653C24.6034 62.8653 29.3249 60.1067 34.0464 55.4913C38.8209 60.1067 43.5425 62.8653 47.256 62.8653C48.5292 62.8653 49.6433 62.6001 50.6512 62.0165C54.0465 60.0536 55.2667 55.1199 54.1526 48.1703C53.9404 46.9501 53.6751 45.6769 53.3568 44.4037C54.63 44.0323 55.8502 43.661 57.0173 43.1835C63.6487 40.6371 67.2561 37.1358 67.2561 33.21C67.2561 29.2843 63.6487 25.7829 57.0173 23.2365ZM49.1658 7.05603C51.3409 8.32925 52.0836 12.255 51.1818 17.8253C51.0226 18.9394 50.7573 20.1065 50.439 21.3267C47.6804 20.6901 44.7626 20.2656 41.6857 20.0004C39.882 17.454 38.0252 15.1728 36.1684 13.1038C40.0942 9.23111 44.073 6.57858 47.3091 6.57858C47.9987 6.57858 48.6353 6.73773 49.1658 7.05603ZM43.2242 38.5151C42.2692 40.2127 41.1552 41.9103 39.9881 43.6079C38.0252 43.7671 36.0623 43.8201 34.0464 43.8201C31.9774 43.8201 30.0145 43.7671 28.1047 43.6079C26.9376 41.9103 25.8766 40.2127 24.9217 38.5151C23.9137 36.7644 22.9588 34.9607 22.11 33.21C22.9588 31.4593 23.9137 29.6556 24.9217 27.9049C25.8766 26.2073 26.9906 24.5097 28.1578 22.8121C30.1206 22.6529 32.0835 22.5999 34.0994 22.5999C36.1684 22.5999 38.1313 22.6529 40.0411 22.8121C41.2082 24.5097 42.2692 26.2073 43.2242 27.9049C44.2321 29.6556 45.187 31.4593 46.0358 33.21C45.134 34.9607 44.2321 36.7114 43.2242 38.5151ZM47.6274 36.7644C48.4231 38.6212 49.0597 40.4249 49.6433 42.2286C47.8396 42.653 45.9297 42.9713 43.9138 43.2366C44.5504 42.2286 45.2401 41.1676 45.8236 40.0535C46.4602 38.9395 47.0438 37.8254 47.6274 36.7644ZM34.0464 51.1411C32.7732 49.7618 31.553 48.2764 30.3859 46.7379C31.6061 46.791 32.8262 46.844 34.0464 46.844C35.2666 46.844 36.4867 46.791 37.7069 46.7379C36.5398 48.2764 35.3196 49.7618 34.0464 51.1411ZM24.179 43.1835C22.163 42.9183 20.2532 42.6 18.4495 42.1756C19.033 40.4249 19.6697 38.5681 20.4654 36.7114C21.049 37.7724 21.6325 38.8864 22.2691 39.9474C22.9057 41.1146 23.5424 42.1225 24.179 43.1835ZM20.4654 29.6556C19.6697 27.7988 19.033 25.9951 18.4495 24.1914C20.2532 23.767 22.163 23.4487 24.179 23.1834C23.5424 24.1914 22.8527 25.2524 22.2691 26.3665C21.6325 27.4805 21.049 28.5946 20.4654 29.6556ZM34.0464 15.2789C35.3196 16.6582 36.5398 18.1436 37.7069 19.6821C36.4867 19.629 35.2666 19.576 34.0464 19.576C32.8262 19.576 31.6061 19.629 30.3859 19.6821C31.553 18.1436 32.7732 16.6582 34.0464 15.2789ZM45.8236 26.4195L43.9138 23.2365C45.9297 23.5017 47.8396 23.82 49.6433 24.2444C49.0597 25.9951 48.4231 27.8519 47.6274 29.7087C47.0438 28.5946 46.4602 27.4805 45.8236 26.4195ZM16.911 17.8253C16.0092 12.255 16.7519 8.32925 18.9269 7.05603C19.4575 6.73773 20.0941 6.57858 20.7837 6.57858C23.9668 6.57858 27.9456 9.17806 31.9244 13.1038C30.0676 15.1197 28.2108 17.454 26.4071 20.0004C23.3302 20.2656 20.4124 20.7431 17.6537 21.3267C17.3354 20.1065 17.1232 18.9394 16.911 17.8253ZM3.80751 33.21C3.80751 30.7166 6.8314 28.0641 12.1365 26.1012C13.1975 25.6768 14.3646 25.3055 15.5317 24.9872C16.3805 27.6397 17.4415 30.4514 18.7147 33.2631C17.4415 36.0747 16.3275 38.8334 15.5317 41.4859C8.21071 39.3639 3.80751 36.1808 3.80751 33.21ZM18.9269 59.364C16.7519 58.0908 16.0092 54.165 16.911 48.5947C17.0702 47.4806 17.3354 46.3135 17.6537 45.0934C20.4124 45.73 23.3302 46.1544 26.4071 46.4196C28.2108 48.9661 30.0676 51.2472 31.9244 53.3162C27.9986 57.1889 24.0198 59.8414 20.7837 59.8414C20.0941 59.8414 19.4575 59.6823 18.9269 59.364ZM51.1818 48.5947C52.0836 54.165 51.3409 58.0908 49.1658 59.364C48.6353 59.6823 47.9987 59.8414 47.3091 59.8414C44.126 59.8414 40.1472 57.242 36.1684 53.3162C38.0252 51.3003 39.882 48.9661 41.6857 46.4196C44.7626 46.1544 47.6804 45.6769 50.439 45.0934C50.7573 46.3135 50.9696 47.4806 51.1818 48.5947ZM55.9563 40.3188C54.8953 40.7432 53.7282 41.1146 52.5611 41.4329C51.7123 38.7803 50.6512 35.9686 49.378 33.157C50.6512 30.3453 51.7653 27.5866 52.5611 24.9341C59.8821 27.0561 64.2853 30.2392 64.2853 33.21C64.2853 35.7034 61.2083 38.3559 55.9563 40.3188Z" fill="#61DAFB"/>
</svg>
